<svg xmlns="http://www.w3.org/2000/svg" height="795.107" width="837.28"><g fill="#fff"><path d="M65.408 668.254c-29.038 29.037-29.038 76.062 0 105.1 14.517 14.52 33.546 21.753 52.575 21.753 19.029 0 38.056-7.234 52.576-21.754L314.48 628.317 209.332 523.265 65.408 668.254M675.348 215.94l106.29-54.956 55.647-107.577-51.881-51.882-107.53 55.696-55.053 106.192-76.766 77.711 52.426 52.527 76.867-77.711M662.95 538.07l-14.246 14.247-249.065-249.065 14.245-14.247zM274.794 273.137c-17.906 17.904-46.934 17.904-64.839 0-17.903-17.905-17.903-46.932.003-64.839 17.902-17.904 46.93-17.904 64.836 0 17.902 17.904 17.904 46.934 0 64.839zm123.937 144.457c-15.695 15.695-41.14 15.694-56.836-.001-15.693-15.695-15.695-41.141 0-56.835 15.696-15.694 41.14-15.694 56.836 0 15.695 15.694 15.695 41.143 0 56.836zm96.71 96.711C479.75 530 454.303 530 438.609 514.303c-15.696-15.694-15.696-41.14 0-56.835 15.695-15.695 41.14-15.695 56.835 0 15.694 15.695 15.696 41.143 0 56.836zm96.713 96.712c-15.695 15.696-41.142 15.695-56.838-.001-15.694-15.695-15.694-41.14 0-56.836 15.696-15.695 41.143-15.695 56.836 0 15.695 15.696 15.698 41.142.002 56.837zM175.38 99.721l-74 74.002c-46.64 46.64-46.64 122.962 0 169.604l395.958 395.956c46.64 46.64 122.964 46.64 169.604 0l74-74c46.641-46.642 46.641-122.963 0-169.604L344.985 99.72c-46.641-46.64-122.962-46.64-169.604 0"/><path d="M72.02 204.508c29.774 29.773 47.082 61.187 38.463 69.805-8.618 8.619-40.03-8.69-69.804-38.465-29.774-29.773-47.083-61.185-38.464-69.804 8.618-8.619 40.03 8.69 69.804 38.464M235.847 40.68c29.774 29.775 47.082 61.187 38.464 69.805-8.619 8.619-40.031-8.69-69.806-38.464-29.773-29.773-47.082-61.186-38.464-69.805 8.62-8.619 40.032 8.69 69.806 38.464"/></g></svg>