<svg xmlns="http://www.w3.org/2000/svg" width="676.587" height="854.653"><g fill="#fff"><path d="M78.24 68.852c-5.09 0-9.388 4.299-9.388 9.388v433.675c0 5.088 4.299 9.388 9.388 9.388h277.705c5.088 0 9.388-4.3 9.388-9.388V78.24c0-5.09-4.3-9.388-9.388-9.388zm277.705 521.301H78.24C35.098 590.153 0 555.056 0 511.915V78.24C0 35.099 35.098 0 78.24 0h277.705c43.142 0 78.24 35.099 78.24 78.24v433.675c0 43.141-35.098 78.238-78.24 78.238"/><path d="M325.092 164.797h-216v-27.44h216v27.44M325.092 236.797h-216v-27.44h216v27.44M325.092 308.797h-216v-27.44h216v27.44M325.092 380.797h-216v-27.44h216v27.44M325.092 452.797h-216v-27.44h216v27.44"/><path d="M353.057 854.653c-15.624.002-30.85-4.674-43.978-13.668L79.969 684.048l38.909-56.801 229.11 156.937c4.197 2.875 10.176 1.758 13.05-2.44l245.08-357.785c1.874-2.739 1.7-5.575 1.43-7.022-.27-1.446-1.132-4.154-3.87-6.029l-137.222-93.995 38.908-56.802 137.221 93.994c17.203 11.783 28.795 29.603 32.642 50.18 3.848 20.576-.524 41.382-12.308 58.583L417.84 820.653c-11.784 17.203-29.604 28.794-50.18 32.64a79.478 79.478 0 0 1-14.604 1.36"/><path d="M523.952 472.592l-75.996-52.556 15.607-22.57 75.996 52.558-15.607 22.568M483.416 532.097l-38.641-25.958 15.302-22.776 38.64 25.958-15.301 22.776M442.567 591.39l-19.287-13.36 15.625-22.558 19.287 13.36-15.625 22.557M401.832 650.756l-45.93-32.092 15.715-22.492 45.931 32.092-15.716 22.492M361.164 710.172l-128.576-89.493 15.676-22.522 128.575 89.494-15.675 22.521"/></g></svg>