<svg xmlns="http://www.w3.org/2000/svg" width="793.707" height="793.547"><g fill="#fff"><path d="M479.063 479.067c-86.976 86.974-228.084 86.974-315.059 0-86.973-86.975-86.973-228.083 0-315.056 86.975-86.974 228.083-86.974 315.059 0 86.973 86.974 86.973 228.081 0 315.056zm296.076 206.297L609.77 519.997l-11.882 11.883-18.318-18.32c93.905-125.924 83.838-304.99-30.534-419.361-125.756-125.594-329.249-125.594-454.842 0-125.593 125.593-125.593 329.25 0 454.68 114.37 114.37 293.437 124.601 419.361 30.529l18.317 18.319-11.882 11.884L685.36 774.98c24.755 24.755 65.024 24.755 89.779 0 24.757-24.59 24.757-64.696 0-89.616"/><path d="M402.535 326.108c0-44.299-36.047-80.348-80.347-80.348-44.303 0-80.348 36.05-80.348 80.348 0 44.3 36.047 80.348 80.348 80.348 44.297 0 80.347-36.048 80.347-80.348zm87.442-16.548v33.099c0 1.046-.76 1.944-1.772 2.101a1108.86 1108.86 0 0 1-20.913 2.928c-7.779 1.012-14.148 6.516-16.213 14.037a132.875 132.875 0 0 1-12.566 30.315c-3.856 6.785-3.258 15.187 1.528 21.408a1121.78 1121.78 0 0 1 12.722 16.86c.613.82.51 2.004-.234 2.75l-23.393 23.393c-.744.744-1.928.848-2.75.233a1131.034 1131.034 0 0 1-16.86-12.721c-6.215-4.788-14.625-5.383-21.41-1.527a133.78 133.78 0 0 1-30.315 12.565c-7.51 2.064-13.025 8.435-14.036 16.212a1170.1 1170.1 0 0 1-2.929 20.914c-.144 1.012-1.053 1.772-2.108 1.772h-33.084c-1.055 0-1.952-.76-2.11-1.772a1254.3 1254.3 0 0 1-2.929-20.914c-1.01-7.777-6.524-14.148-14.033-16.212a133.723 133.723 0 0 1-30.319-12.565 19.228 19.228 0 0 0-9.54-2.527c-4.19 0-8.374 1.367-11.864 4.054a1145.127 1145.127 0 0 1-16.862 12.721c-.831.605-2.004.51-2.747-.233l-23.396-23.394c-.743-.745-.848-1.92-.233-2.749 4.122-5.567 8.4-11.244 12.722-16.86 4.788-6.215 5.384-14.623 1.53-21.408a132.716 132.716 0 0 1-12.564-30.315c-2.068-7.512-8.438-13.026-16.207-14.037a1124.3 1124.3 0 0 1-20.923-2.928c-1.01-.156-1.772-1.055-1.772-2.101V309.56c0-1.047.762-1.945 1.772-2.101a1120.04 1120.04 0 0 1 20.915-2.928c7.777-1.014 14.147-6.527 16.215-14.038a132.676 132.676 0 0 1 12.564-30.316c3.854-6.784 3.258-15.194-1.53-21.406-4.31-5.61-8.589-11.279-12.722-16.862-.614-.83-.51-2.005.233-2.748l23.396-23.394c.743-.744 1.917-.846 2.747-.234a1135.987 1135.987 0 0 1 16.862 12.723c6.223 4.788 14.623 5.384 21.407 1.53a133.623 133.623 0 0 1 30.317-12.565c7.51-2.066 13.023-8.436 14.034-16.214.924-7.035 1.912-14.07 2.929-20.915.156-1.012 1.053-1.772 2.108-1.772h33.092c1.044 0 1.955.76 2.099 1.772a1197.37 1197.37 0 0 1 2.929 20.915c1.012 7.777 6.527 14.146 14.036 16.214a133.593 133.593 0 0 1 30.315 12.564c6.784 3.855 15.194 3.259 21.409-1.529a1131.2 1131.2 0 0 1 16.86-12.723c.821-.612 2.007-.509 2.75.234l23.394 23.394c.744.743.847 1.927.233 2.748-4.122 5.574-8.4 11.243-12.721 16.862-4.788 6.222-5.384 14.622-1.528 21.406a132.92 132.92 0 0 1 12.565 30.316c2.066 7.519 8.435 13.024 16.204 14.038 7.027.916 14.062 1.9 20.922 2.928 1.013.156 1.774 1.054 1.774 2.101"/></g></svg>