<svg xmlns="http://www.w3.org/2000/svg" height="793.707" width="793.707"><g fill="#fff"><path d="M452.557 688.012l-35.902-80.761c.028 0 .053-.011.08-.011 45.849-5.57 86.526-30.068 118.498-64.847.027-.028.067-.053.094-.093l5.94 23.732zm-105.696 79.224l7.926-39.672h84.145l3.361 16.761 4.564 22.819zm-94.41-201.204l5.94-23.732c.026.04.066.065.092.093 31.974 34.776 72.652 59.276 118.5 64.847.028 0 .053.01.08.01l-35.903 80.762zm-40.796-208.864v-52.915h370.394v52.915c0 59.57-21.073 111.992-52.24 151.307-.462.449-1.07.728-1.468 1.244a240.758 240.758 0 0 1-14.1 16.469c-.028.027-.053.055-.08.079-3.214 3.4-6.561 6.428-9.894 9.538-32.331 29.156-70.732 46.247-107.414 46.247-36.67 0-75.072-17.09-107.416-46.247-3.321-3.109-6.666-6.138-9.882-9.538l-.079-.079a241.715 241.715 0 0 1-14.115-16.47c-.396-.515-.993-.794-1.454-1.243-31.166-39.315-52.252-91.738-52.252-151.307zm542.75 301.608c-79.357-41.761-140.064-64.952-193.982-74.105l5.874-8.07a13.264 13.264 0 0 0 2.144-10.98l-12.29-49.118c32.913-46.406 52.358-104.371 52.358-159.336v-52.915h39.684c7.316 0 13.227-5.925 13.227-13.227a13.214 13.214 0 0 0-13.227-13.228h-13.226V264.57c0-36.854-8.679-71.566-24.236-102.441L491.952 184.96c-.833.159-1.667.237-2.499.237a13.263 13.263 0 0 1-9.34-3.862 13.286 13.286 0 0 1-3.652-11.854l21.694-113.897c-11.203-5.04-22.91-9.405-35.162-12.884v-2.804C462.993 17.897 445.096 0 423.097 0h-52.476c-22.013 0-39.91 17.897-39.91 39.897v2.804c-12.238 3.48-23.944 7.844-35.147 12.884l21.693 113.898a13.288 13.288 0 0 1-3.652 11.853 13.266 13.266 0 0 1-11.852 3.625L182.99 162.13c-15.557 30.875-24.246 65.588-24.246 102.442v13.228h-13.228c-7.303 0-13.229 5.913-13.229 13.228 0 7.301 5.926 13.226 13.229 13.226h39.684v52.915c0 54.965 19.46 112.932 52.358 159.337l-12.276 49.118c-.952 3.796-.158 7.804 2.143 10.98l5.875 8.069c-53.92 9.153-114.624 32.344-193.981 74.105C15.066 671.528 0 696.491 0 723.915v56.562c0 7.303 5.926 13.228 13.228 13.228h322.443c.013 0 .013-.012.025-.012l121.755-.107c.212.014.382.12.596.12h322.429c7.317 0 13.228-5.925 13.228-13.227v-56.563c.001-27.425-15.052-52.388-39.299-65.14"/><path d="M522.641 68.424l-16.548 86.857 90.523-17.409c-18.799-27.924-43.93-51.59-73.975-69.448M271.073 68.424c-30.044 17.859-55.176 41.524-73.973 69.45l90.521 17.409-16.548-86.859"/></g></svg>