<svg xmlns="http://www.w3.org/2000/svg" height="158.413" width="122.187"><g fill="#fff"><path d="M98.482 0a8 8 0 0 1 6.74 12.299L70.09 67.435l26.544-6.269a7.997 7.997 0 0 1 8.508 3.367 7.999 7.999 0 0 1-.216 9.15l-62.479 79.606c-1.566 2.138-3.349 4.295-5.475 5.118-.327 0-.604.006-.848.006-.974 0-1.408-.101-2.406-1.104-1.54-1.549-1.883-4.9.73-8.465l44.746-67.12-24.597 5.81a8.041 8.041 0 0 1-1.83.21 8.005 8.005 0 0 1-6.529-3.363 8.003 8.003 0 0 1-.225-8.933L91.729 3.7A7.987 7.987 0 0 1 98.482 0"/><path d="M84.194 58.625l10.84-2.559-5.409-9.366-6.46 10.141 1.029 1.784M48.887 117.57H22.513c-5.328 0-9.31-1.605-10.925-4.404-1.617-2.797-1.015-7.05 1.65-11.665l38.577-66.82c2.665-4.615 6.047-7.26 9.278-7.26 2.293 0 4.657 1.354 6.791 3.777l5.888-9.24c-3.749-3.395-8.077-5.205-12.679-5.205-7.25 0-13.825 4.472-18.515 12.595L4 96.168c-4.69 8.122-5.276 16.053-1.65 22.332 3.624 6.278 10.785 9.737 20.163 9.737h19.263l7.111-10.667M118.186 96.168l-10.227-17.713-7.094 9.042 8.084 14.004c2.665 4.615 3.266 8.868 1.65 11.665-1.615 2.799-5.599 4.404-10.927 4.404h-22.41l-8.372 10.667h30.782c9.38 0 16.539-3.459 20.164-9.737 3.627-6.279 3.04-14.21-1.65-22.332"/></g></svg>