<svg xmlns="http://www.w3.org/2000/svg" height="184.6" width="509.68"><path d="M134.092 118.178V43.452c0-1.459.653-2.61 1.957-3.455 1.306-.844 2.84-1.266 4.607-1.266h40.99c1.535 0 2.706.653 3.513 1.957.805 1.305 1.208 2.803 1.208 4.49 0 1.843-.423 3.417-1.267 4.722-.845 1.305-1.996 1.957-3.455 1.957h-32.584v23.028h17.502c1.458 0 2.609.595 3.454 1.785.844 1.19 1.267 2.59 1.267 4.202a6.93 6.93 0 0 1-1.21 3.973c-.806 1.19-1.978 1.784-3.511 1.784H149.06v23.143h32.584c1.459 0 2.61.653 3.455 1.958.844 1.307 1.267 2.878 1.267 4.722 0 1.687-.403 3.184-1.208 4.49-.807 1.306-1.978 1.957-3.514 1.957h-40.989c-1.767 0-3.301-.421-4.607-1.268-1.304-.844-1.957-1.995-1.957-3.453m75.994-8.406h11.975c8.059 0 12.09-4.412 12.09-13.24V65.097c0-8.825-4.031-13.24-12.09-13.24h-11.975zm-14.968 8.52V43.338c0-1.228.615-2.305 1.843-3.224 1.228-.922 2.8-1.382 4.72-1.382h20.38c8.213 0 14.775 2.112 19.69 6.333 4.911 4.221 7.369 10.9 7.369 20.033v31.435c0 9.136-2.458 15.813-7.37 20.034-4.914 4.221-11.476 6.333-19.689 6.333h-20.38c-1.92 0-3.492-.46-4.72-1.382-1.228-.922-1.843-1.995-1.843-3.224m60.908-73.577c0-1.612 1.036-3.01 3.11-4.201 2.073-1.19 4.221-1.785 6.448-1.785 2.762 0 4.412.998 4.95 2.994l18.192 62.406 9.787-40.07c.69-2.763 3.147-4.144 7.37-4.144 4.146 0 6.562 1.38 7.253 4.144l9.789 40.07 18.19-62.406c.537-1.996 2.19-2.994 4.953-2.994 2.224 0 4.376.596 6.448 1.785 2.073 1.19 3.106 2.59 3.106 4.201 0 .462-.074.922-.229 1.383l-22.796 72.425c-1.153 3.377-4.417 5.065-9.79 5.065-2.302 0-4.374-.443-6.215-1.323-1.844-.883-2.956-2.13-3.339-3.742l-7.37-31.089-7.485 31.089c-.385 1.611-1.497 2.859-3.338 3.742-1.843.88-3.916 1.323-6.219 1.323-2.38 0-4.49-.443-6.333-1.323-1.84-.883-2.992-2.13-3.452-3.742l-22.8-72.425a4.356 4.356 0 0 1-.23-1.383m106.967 73.461V72.813c0-1.382.664-2.494 1.992-3.34 1.328-.844 3.025-1.266 5.09-1.266 2.066 0 3.782.422 5.147 1.265 1.364.847 2.047 1.959 2.047 3.34v45.366c0 1.151-.719 2.227-2.159 3.224-1.438.997-3.117 1.497-5.034 1.497-1.995 0-3.672-.479-5.036-1.44-1.366-.958-2.047-2.052-2.047-3.28zm-1.383-68.74c0-1.805.815-3.351 2.447-4.635 1.63-1.284 3.639-1.927 6.03-1.927 2.142 0 3.97.643 5.486 1.927 1.516 1.284 2.273 2.83 2.273 4.636 0 1.737-.757 3.265-2.273 4.583-1.516 1.322-3.344 1.98-5.487 1.98-2.39 0-4.398-.658-6.029-1.98-1.632-1.318-2.447-2.846-2.447-4.583m28.323 68.739V43.452c0-1.536.73-2.707 2.19-3.513 1.455-.806 3.223-1.208 5.294-1.208 2.765 0 4.875.5 6.333 1.497 1.459.997 3.071 3.148 4.836 6.448l22.224 42.947V43.337c0-1.537.727-2.688 2.188-3.456 1.455-.765 3.224-1.15 5.294-1.15 2.073 0 3.838.385 5.297 1.15 1.459.768 2.188 1.919 2.188 3.456v74.841c0 1.458-.748 2.61-2.245 3.453-1.498.847-3.243 1.268-5.24 1.268-4.068 0-6.948-1.572-8.635-4.72L404.9 71.891v46.286c0 1.458-.747 2.61-2.244 3.453-1.497.847-3.243 1.268-5.24 1.268-2.07 0-3.839-.421-5.295-1.268-1.46-.844-2.189-1.995-2.189-3.453" fill="#00adef"/><path d="M48.887 117.566l18.364-27.545-11.426 2.699c-5.286 1.23-10.848-.91-13.934-5.255a13.28 13.28 0 0 1-.375-14.887l26.368-41.385-8.525-10.288s-53.333 86.666-54 86.586c-.666-.081 9 15.408 9 15.408l33.3-5.333h1.228" fill="#fff200"/><path d="M98.482-.004a8 8 0 0 1 6.74 12.299L70.09 67.43l26.544-6.268a7.996 7.996 0 0 1 8.508 3.367 7.999 7.999 0 0 1-.216 9.148l-62.479 79.607c-1.566 2.137-3.349 4.295-5.475 5.118-.327 0-.604.006-.848.006-.974 0-1.408-.101-2.406-1.104-1.54-1.55-1.883-4.9.73-8.465l44.746-67.12-24.597 5.81a8.049 8.049 0 0 1-1.83.21 8.004 8.004 0 0 1-6.529-3.364 8.002 8.002 0 0 1-.225-8.932L91.729 3.696a7.987 7.987 0 0 1 6.753-3.7" fill="#00adef"/><path d="M84.194 58.62l10.84-2.557-5.409-9.367-6.46 10.14 1.029 1.785m-35.307 58.945H22.513c-5.328 0-9.31-1.605-10.925-4.403-1.617-2.798-1.015-7.051 1.65-11.666l38.577-66.82c2.665-4.614 6.047-7.261 9.278-7.261 2.293 0 4.657 1.355 6.791 3.777l5.888-9.24c-3.749-3.394-8.077-5.204-12.679-5.204-7.25 0-13.825 4.472-18.515 12.595L4 96.164c-4.69 8.122-5.276 16.053-1.65 22.332 3.624 6.279 10.785 9.737 20.163 9.737h19.263l7.111-10.667m69.299-21.402l-10.227-17.712-7.094 9.041 8.084 14.004c2.665 4.615 3.266 8.868 1.65 11.666-1.615 2.798-5.599 4.403-10.927 4.403h-22.41l-8.372 10.667h30.782c9.38 0 16.539-3.458 20.164-9.737 3.627-6.279 3.04-14.21-1.65-22.332m358.439 10.949h1.724c2.012 0 3.64-.67 3.64-2.298 0-1.437-1.052-2.395-3.353-2.395-.957 0-1.628.096-2.01.19zm-.096 8.814h-3.64v-15.614c1.438-.288 3.448-.575 6.035-.575 2.97 0 4.31.48 5.461 1.245.862.67 1.532 1.916 1.532 3.352 0 1.82-1.341 3.162-3.257 3.736v.192c1.532.48 2.396 1.724 2.873 3.831.479 2.396.767 3.352 1.15 3.833h-3.927c-.479-.575-.767-1.917-1.245-3.737-.288-1.724-1.246-2.49-3.256-2.49h-1.726zm2.395-20.69c-6.896 0-12.07 5.651-12.07 12.547 0 6.993 5.174 12.548 12.262 12.548 6.896.097 11.973-5.555 11.973-12.548 0-6.896-5.077-12.548-12.069-12.548zm.192-3.162c9.004 0 15.996 6.993 15.996 15.709 0 8.908-6.992 15.806-16.092 15.806-9.004 0-16.187-6.898-16.187-15.806 0-8.716 7.183-15.71 16.187-15.71h.096" fill="#00adef"/><path d="M145.885 137.4h2.488c.627 0 .94.095.94.283 0 .1-.344.51-1.033 1.226a53.727 53.727 0 0 1-2.081 2.056c-.7.654-1.187 1.05-1.456 1.188-.7.364-1.451.547-2.248.547-.53 0-.794-.157-.794-.472 0-.213.16-.584.479-1.112l.83-1.585c.48-.917.897-1.503 1.254-1.754.355-.252.896-.377 1.621-.377zm6.671 11.524h-12.33v6.79h11.354c.836 0 1.46.193 1.87.575.413.384.618.891.618 1.519 0 .63-.203 1.141-.608 1.537-.404.396-1.032.595-1.88.595h-11.353v7.865h12.754c.859 0 1.508.204 1.944.612.436.41.655.954.655 1.632 0 .655-.219 1.186-.655 1.594-.436.41-1.085.613-1.944.613h-14.873c-1.192 0-2.05-.27-2.572-.81-.523-.54-.783-1.415-.783-2.622v-20.787c0-.804.116-1.461.351-1.97a2.2 2.2 0 0 1 1.096-1.114c.497-.232 1.133-.348 1.908-.348h14.448c.873 0 1.521.198 1.945.593.424.397.636.916.636 1.557 0 .654-.212 1.18-.636 1.574-.424.398-1.072.595-1.945.595m24.123 17.429c0 .642-.187 1.327-.562 2.056-.374.728-.946 1.423-1.714 2.084-.768.66-1.736 1.19-2.903 1.593s-2.481.605-3.944.605c-3.11 0-5.536-.929-7.279-2.783-1.745-1.855-2.617-4.341-2.617-7.46 0-2.112.397-3.98 1.197-5.601.799-1.623 1.954-2.878 3.466-3.764 1.51-.886 3.317-1.33 5.417-1.33 1.303 0 2.497.195 3.585.586 1.088.39 2.008.892 2.766 1.509.754.616 1.333 1.272 1.732 1.97.4.698.598 1.349.598 1.953a2.08 2.08 0 0 1-.672 1.565 2.276 2.276 0 0 1-1.632.641c-.417 0-.764-.109-1.041-.33-.276-.219-.587-.575-.93-1.066-.615-.954-1.257-1.672-1.926-2.15-.67-.478-1.521-.716-2.553-.716-1.487 0-2.684.593-3.594 1.782-.909 1.188-1.364 2.813-1.364 4.876 0 .968.118 1.858.35 2.668.233.812.572 1.504 1.014 2.075a4.341 4.341 0 0 0 1.603 1.301 4.77 4.77 0 0 0 2.064.444c1.008 0 1.87-.239 2.59-.717.72-.477 1.355-1.207 1.907-2.188.308-.577.64-1.03.996-1.358.356-.326.792-.49 1.31-.49.613 0 1.124.239 1.528.717.406.478.608.987.608 1.528m2.504 3.244v-22.333c0-1.03.224-1.81.672-2.339.449-.528 1.054-.792 1.816-.792s1.377.262 1.842.783c.468.523.702 1.304.702 2.348v22.333c0 1.043-.238 1.827-.711 2.348-.472.522-1.084.783-1.833.783-.736 0-1.336-.27-1.796-.81-.462-.542-.692-1.315-.692-2.32m21.67-7.225c-.737.276-1.809.568-3.216.876-1.408.308-2.381.535-2.921.68-.541.144-1.056.428-1.55.848-.49.421-.735 1.01-.735 1.764 0 .78.289 1.443.865 1.99.579.548 1.333.821 2.267.821a5.79 5.79 0 0 0 2.757-.67c.841-.446 1.457-1.02 1.85-1.726.455-.779.683-2.063.683-3.848zm.332 7.451c-1.217.968-2.393 1.695-3.529 2.178-1.137.483-2.412.726-3.824.726-1.29 0-2.424-.261-3.401-.783-.978-.521-1.73-1.229-2.259-2.121a5.62 5.62 0 0 1-.79-2.905c0-1.409.435-2.61 1.307-3.603.872-.993 2.071-1.66 3.594-2 .32-.075 1.112-.244 2.378-.51a98.465 98.465 0 0 0 3.252-.725c.904-.22 1.883-.488 2.94-.802-.061-1.358-.329-2.354-.801-2.99-.473-.634-1.453-.952-2.941-.952-1.278 0-2.238.183-2.884.547-.644.365-1.198.912-1.659 1.641-.46.73-.787 1.211-.976 1.443-.19.234-.599.35-1.225.35a2.124 2.124 0 0 1-1.467-.557c-.41-.372-.617-.846-.617-1.425 0-.904.314-1.784.94-2.64.626-.855 1.605-1.559 2.932-2.113 1.326-.552 2.978-.83 4.956-.83 2.213 0 3.95.268 5.217.802 1.265.534 2.16 1.381 2.681 2.537.523 1.157.783 2.69.783 4.603a402.248 402.248 0 0 1-.036 5.885c0 .968.156 1.976.47 3.027.314 1.05.47 1.725.47 2.028 0 .528-.243 1.008-.728 1.442-.485.433-1.035.651-1.65.651-.515 0-1.026-.248-1.53-.745s-1.037-1.216-1.603-2.159m13.8-15.109v14.882c0 1.031-.24 1.81-.718 2.339-.48.528-1.088.792-1.824.792-.738 0-1.336-.27-1.798-.81-.461-.542-.692-1.315-.692-2.32v-14.733c0-1.017.231-1.785.692-2.301.462-.515 1.06-.772 1.798-.772.736 0 1.344.257 1.824.772.478.516.718 1.233.718 2.15zm-2.488-5.32c-.701 0-1.3-.219-1.797-.659-.497-.44-.747-1.063-.747-1.868 0-.73.256-1.33.766-1.801a2.54 2.54 0 0 1 1.778-.707c.651 0 1.228.213 1.732.642.504.427.756 1.05.756 1.866 0 .793-.246 1.412-.737 1.859a2.516 2.516 0 0 1-1.75.669m11.735 15.9v4.301c0 1.043-.238 1.827-.718 2.348-.479.522-1.087.783-1.826.783-.724 0-1.32-.264-1.788-.792-.465-.528-.698-1.308-.698-2.339v-14.336c0-2.313.816-3.469 2.45-3.469.836 0 1.438.27 1.806.81.369.54.572 1.34.608 2.395.602-1.056 1.22-1.854 1.853-2.394.633-.542 1.477-.81 2.533-.81 1.058 0 2.084.268 3.079.81.996.54 1.493 1.257 1.493 2.15 0 .628-.212 1.147-.636 1.555-.424.41-.882.613-1.373.613-.184 0-.63-.116-1.336-.348-.707-.233-1.33-.349-1.87-.349-.738 0-1.34.197-1.807.595-.467.396-.83.983-1.087 1.762-.259.78-.437 1.707-.535 2.783-.1 1.075-.148 2.385-.148 3.932m22.042-2.923c-.738.276-1.811.568-3.218.876-1.406.308-2.381.535-2.921.68-.54.144-1.056.428-1.548.848-.49.421-.737 1.01-.737 1.764 0 .78.289 1.443.866 1.99.578.548 1.334.821 2.267.821.996 0 1.913-.223 2.756-.67.841-.446 1.459-1.02 1.852-1.726.455-.779.683-2.063.683-3.848zm.332 7.451c-1.218.968-2.394 1.695-3.531 2.178-1.136.483-2.41.726-3.824.726-1.29 0-2.423-.261-3.401-.783-.976-.521-1.73-1.229-2.258-2.121a5.609 5.609 0 0 1-.792-2.905c0-1.409.436-2.61 1.31-3.603.872-.993 2.069-1.66 3.593-2 .319-.075 1.112-.244 2.377-.51a97.7 97.7 0 0 0 3.252-.725c.904-.22 1.884-.488 2.942-.802-.062-1.358-.331-2.354-.803-2.99-.472-.634-1.453-.952-2.94-.952-1.277 0-2.239.183-2.884.547-.645.365-1.199.912-1.659 1.641-.461.73-.786 1.211-.977 1.443-.19.234-.599.35-1.225.35a2.121 2.121 0 0 1-1.466-.557c-.412-.372-.617-.846-.617-1.425 0-.904.313-1.784.94-2.64.627-.855 1.604-1.559 2.93-2.113 1.327-.552 2.98-.83 4.958-.83 2.212 0 3.95.268 5.216.802 1.265.534 2.16 1.381 2.683 2.537.521 1.157.782 2.69.782 4.603a402.248 402.248 0 0 1-.037 5.885c0 .968.157 1.976.47 3.027.314 1.05.47 1.725.47 2.028 0 .528-.241 1.008-.727 1.442-.486.433-1.036.651-1.65.651-.516 0-1.026-.248-1.53-.745s-1.038-1.216-1.602-2.159m12.197-7.734c0 2.087.445 3.666 1.336 4.734.89 1.07 2.043 1.604 3.456 1.604.836 0 1.625-.23 2.368-.69.744-.458 1.35-1.15 1.815-2.074.468-.924.701-2.047.701-3.367 0-2.1-.452-3.734-1.355-4.904-.902-1.169-2.092-1.754-3.566-1.754-1.438 0-2.59.56-3.455 1.678-.868 1.12-1.3 2.711-1.3 4.772zm14.579-6.526v14.957c0 1.71-.179 3.182-.535 4.414-.356 1.232-.928 2.25-1.715 3.056-.786.804-1.814 1.401-3.085 1.792-1.272.389-2.855.584-4.747.584-1.733 0-3.281-.248-4.644-.746-1.365-.495-2.416-1.137-3.153-1.924-.736-.785-1.105-1.593-1.105-2.424 0-.628.209-1.14.626-1.536a2.119 2.119 0 0 1 1.512-.594c.738 0 1.382.333 1.935 1 .27.34.55.683.839 1.028.289.345.608.641.958.886s.771.427 1.263.547a7.28 7.28 0 0 0 1.695.179c1.302 0 2.313-.186 3.032-.556.72-.37 1.222-.89 1.512-1.556a6.4 6.4 0 0 0 .506-2.142c.05-.76.086-1.982.111-3.668-.775 1.107-1.668 1.95-2.681 2.527-1.015.58-2.222.868-3.623.868-1.684 0-3.155-.44-4.415-1.32-1.258-.88-2.225-2.112-2.901-3.696-.676-1.585-1.015-3.415-1.015-5.49 0-1.546.206-2.942.619-4.187.41-1.244.997-2.295 1.759-3.15a7.517 7.517 0 0 1 2.637-1.933c.995-.433 2.088-.65 3.28-.65 1.425 0 2.66.28 3.704.838 1.044.56 2.016 1.437 2.913 2.632v-.698c0-.893.215-1.585.644-2.075.43-.491.983-.735 1.659-.735.97 0 1.616.323 1.935.97.32.648.48 1.582.48 2.802m7.404 5.036h9.124c-.124-1.76-.587-3.078-1.392-3.952-.804-.873-1.864-1.31-3.18-1.31-1.252 0-2.283.442-3.087 1.329-.805.886-1.293 2.197-1.465 3.933zm9.842 2.924h-9.842c.012 1.168.242 2.2.692 3.092.448.893 1.044 1.567 1.788 2.019a4.635 4.635 0 0 0 2.46.679c.602 0 1.152-.073 1.65-.217.498-.145.979-.37 1.447-.68.465-.308.896-.637 1.29-.989.391-.352.902-.83 1.529-1.433.258-.227.628-.34 1.106-.34.516 0 .934.145 1.252.433.32.29.48.698.48 1.227 0 .465-.178 1.009-.534 1.63-.356.624-.894 1.22-1.614 1.794-.718.571-1.62 1.046-2.709 1.423-1.087.378-2.337.566-3.75.566-3.231 0-5.745-.943-7.538-2.83-1.793-1.886-2.69-4.445-2.69-7.677 0-1.521.22-2.932.663-4.233.442-1.302 1.087-2.417 1.935-3.35.848-.929 1.892-1.642 3.133-2.14 1.24-.496 2.618-.745 4.128-.745 1.967 0 3.654.426 5.059 1.274 1.408.849 2.461 1.945 3.161 3.292.702 1.345 1.052 2.716 1.052 4.112 0 1.294-.364 2.133-1.088 2.517-.725.384-1.745.576-3.06.576m20.138-2.924h9.122c-.122-1.76-.586-3.078-1.39-3.952-.806-.873-1.866-1.31-3.18-1.31-1.254 0-2.283.442-3.088 1.329-.804.886-1.292 2.197-1.464 3.933zm9.842 2.924h-9.842c.01 1.168.241 2.2.69 3.092.448.893 1.044 1.567 1.788 2.019a4.64 4.64 0 0 0 2.462.679 5.93 5.93 0 0 0 1.649-.217c.497-.145.979-.37 1.447-.68a11.2 11.2 0 0 0 1.29-.989c.392-.352.903-.83 1.528-1.433.26-.227.628-.34 1.107-.34.516 0 .935.145 1.253.433.319.29.479.698.479 1.227 0 .465-.179 1.009-.533 1.63-.358.624-.895 1.22-1.614 1.794-.718.571-1.621 1.046-2.709 1.423-1.088.378-2.337.566-3.75.566-3.233 0-5.745-.943-7.538-2.83-1.795-1.886-2.692-4.445-2.692-7.677 0-1.521.221-2.932.664-4.233.441-1.302 1.088-2.417 1.935-3.35.848-.929 1.892-1.642 3.133-2.14 1.241-.496 2.617-.745 4.13-.745 1.965 0 3.651.426 5.058 1.274 1.407.849 2.46 1.945 3.161 3.292.7 1.345 1.051 2.716 1.051 4.112 0 1.294-.364 2.133-1.088 2.517-.724.384-1.744.576-3.059.576m17.856 7.072l-3.649-5.488-3.743 5.488c-.54.768-.997 1.314-1.372 1.641-.374.327-.852.491-1.428.491-.64 0-1.182-.204-1.632-.613-.448-.408-.672-.876-.672-1.406 0-.54.344-1.313 1.031-2.32l4.553-6.675-4.036-5.566c-.7-.917-1.05-1.716-1.05-2.395 0-.529.208-.986.626-1.377.418-.39.964-.584 1.64-.584.591 0 1.079.17 1.466.51.386.338.838.873 1.354 1.602l3.263 4.564 3.17-4.564c.527-.755.986-1.296 1.373-1.623.386-.326.869-.489 1.446-.489.664 0 1.214.19 1.65.575.436.384.656.845.656 1.386 0 .39-.091.764-.27 1.123-.177.357-.45.783-.82 1.272l-4.034 5.566 4.552 6.675c.712 1.044 1.069 1.83 1.069 2.358 0 .541-.221 1.006-.664 1.396-.444.39-.99.585-1.641.585-.578 0-1.066-.17-1.466-.51-.398-.338-.856-.88-1.372-1.622m8.087-18.352h.553v-3.093c0-.83.02-1.482.063-1.953.044-.471.164-.877.36-1.217a2.3 2.3 0 0 1 .848-.857c.37-.22.781-.33 1.235-.33.638 0 1.217.245 1.732.735a2.2 2.2 0 0 1 .656 1.198c.092.471.137 1.141.137 2.009v3.508h1.844c.712 0 1.255.173 1.63.519.375.345.562.79.562 1.33 0 .69-.267 1.175-.801 1.452-.535.276-1.3.415-2.295.415h-.94v9.468c0 .805.028 1.425.084 1.858.055.434.201.786.443 1.057.238.27.628.405 1.169.405.295 0 .693-.053 1.197-.16.504-.107.898-.16 1.18-.16.406 0 .771.167 1.098.499.324.333.488.745.488 1.236 0 .83-.443 1.465-1.328 1.905-.884.44-2.156.66-3.815.66-1.573 0-2.764-.27-3.576-.81a3.762 3.762 0 0 1-1.593-2.246c-.254-.955-.378-2.232-.378-3.828v-9.884h-.664c-.725 0-1.277-.176-1.66-.528-.38-.352-.57-.799-.57-1.34 0-.54.2-.984.6-1.33.398-.345.978-.518 1.741-.518m21.505-7.847h2.488c.627 0 .94.095.94.283 0 .101-.344.51-1.032 1.227a55.116 55.116 0 0 1-2.082 2.056c-.702.653-1.187 1.049-1.456 1.188-.7.365-1.451.546-2.248.546-.53 0-.794-.157-.794-.472 0-.213.16-.584.479-1.111l.83-1.586c.48-.918.897-1.501 1.254-1.753.355-.251.897-.378 1.621-.378zm-5.161 16.203h9.124c-.124-1.76-.587-3.078-1.392-3.952-.804-.873-1.864-1.31-3.18-1.31-1.252 0-2.281.442-3.087 1.329-.805.886-1.293 2.197-1.465 3.933zm9.843 2.924h-9.843c.012 1.168.243 2.2.692 3.092.448.893 1.044 1.567 1.788 2.019a4.635 4.635 0 0 0 2.46.679c.603 0 1.152-.073 1.65-.217.498-.145.98-.37 1.447-.68a11.2 11.2 0 0 0 1.29-.989c.392-.352.902-.83 1.529-1.433.259-.227.628-.34 1.107-.34.516 0 .933.145 1.252.433.32.29.48.698.48 1.227 0 .465-.179 1.009-.535 1.63-.356.624-.893 1.22-1.612 1.794-.72.571-1.621 1.046-2.71 1.423-1.087.378-2.338.566-3.75.566-3.232 0-5.745-.943-7.539-2.83-1.793-1.886-2.69-4.445-2.69-7.677 0-1.521.221-2.932.664-4.233.441-1.302 1.086-2.417 1.934-3.35.848-.929 1.892-1.642 3.134-2.14 1.24-.496 2.617-.745 4.128-.745 1.966 0 3.653.426 5.058 1.274 1.408.849 2.462 1.945 3.162 3.292.701 1.345 1.052 2.716 1.052 4.112 0 1.294-.364 2.133-1.088 2.517-.726.384-1.744.576-3.06.576m12.437 1.772v4.301c0 1.043-.239 1.827-.719 2.348-.478.522-1.086.783-1.825.783-.724 0-1.32-.264-1.788-.792-.465-.528-.699-1.308-.699-2.339v-14.336c0-2.313.816-3.469 2.451-3.469.836 0 1.437.27 1.805.81.37.54.572 1.34.608 2.395.603-1.056 1.22-1.854 1.854-2.394.633-.542 1.477-.81 2.533-.81 1.057 0 2.084.268 3.079.81.996.54 1.493 1.257 1.493 2.15 0 .628-.212 1.147-.636 1.555-.424.41-.883.613-1.373.613-.184 0-.63-.116-1.336-.348-.707-.233-1.331-.349-1.871-.349-.737 0-1.34.197-1.807.595-.466.396-.829.983-1.086 1.762-.259.78-.438 1.707-.535 2.783-.1 1.075-.148 2.385-.148 3.932m15.625-10.581v14.882c0 1.031-.24 1.81-.718 2.339-.479.528-1.087.792-1.824.792-.738 0-1.336-.27-1.798-.81-.461-.542-.69-1.315-.69-2.32v-14.733c0-1.017.229-1.785.69-2.301.462-.515 1.06-.772 1.798-.772.737 0 1.345.257 1.824.772.478.516.718 1.233.718 2.15zm-2.488-5.32c-.701 0-1.3-.219-1.797-.659-.497-.44-.745-1.063-.745-1.868 0-.73.254-1.33.764-1.801a2.542 2.542 0 0 1 1.778-.707c.651 0 1.23.213 1.734.642.504.427.754 1.05.754 1.866 0 .793-.245 1.412-.737 1.859a2.514 2.514 0 0 1-1.75.669m10.943 11.204h9.124c-.124-1.76-.588-3.078-1.392-3.952-.805-.873-1.865-1.31-3.18-1.31-1.253 0-2.282.442-3.086 1.329-.806.886-1.294 2.197-1.466 3.933zm9.843 2.924h-9.843c.012 1.168.243 2.2.691 3.092.448.893 1.045 1.567 1.788 2.019a4.64 4.64 0 0 0 2.461.679c.602 0 1.151-.073 1.65-.217a5.3 5.3 0 0 0 1.446-.68c.467-.308.896-.637 1.291-.989.392-.352.903-.83 1.528-1.433.26-.227.628-.34 1.108-.34.515 0 .933.145 1.252.433.319.29.479.698.479 1.227 0 .465-.178 1.009-.534 1.63-.357.624-.894 1.22-1.613 1.794-.719.571-1.621 1.046-2.71 1.423-1.087.378-2.337.566-3.75.566-3.232 0-5.744-.943-7.537-2.83-1.795-1.886-2.692-4.445-2.692-7.677 0-1.521.221-2.932.664-4.233.442-1.302 1.088-2.417 1.936-3.35.846-.929 1.892-1.642 3.132-2.14 1.241-.496 2.617-.745 4.129-.745 1.967 0 3.652.426 5.059 1.274 1.408.849 2.461 1.945 3.161 3.292.7 1.345 1.05 2.716 1.05 4.112 0 1.294-.362 2.133-1.086 2.517-.725.384-1.745.576-3.06.576m20.51 6.3v-.661a11.46 11.46 0 0 1-1.897 1.962 6.912 6.912 0 0 1-2.176 1.178c-.786.258-1.684.388-2.69.388-1.216 0-2.307-.26-3.272-.774-.964-.515-1.711-1.226-2.24-2.132-.626-1.094-.939-2.665-.939-4.714v-10.206c0-1.03.227-1.801.681-2.31.455-.508 1.058-.763 1.808-.763.762 0 1.375.257 1.842.772.468.516.701 1.284.701 2.301v8.243c0 1.195.097 2.197.295 3.01.196.81.55 1.445 1.058 1.904.511.46 1.203.688 2.075.688.848 0 1.645-.257 2.396-.773a4.51 4.51 0 0 0 1.64-2.018c.283-.728.424-2.327.424-4.79v-6.264c0-1.017.233-1.785.7-2.301.468-.515 1.076-.772 1.824-.772.75 0 1.352.255 1.808.763.455.509.681 1.28.681 2.31v14.92c0 .982-.218 1.717-.654 2.207-.436.49-.999.736-1.686.736-.689 0-1.257-.255-1.706-.764-.448-.51-.672-1.223-.672-2.14m13.782-4.528v4.301c0 1.043-.238 1.827-.718 2.348-.479.522-1.087.783-1.826.783-.724 0-1.32-.264-1.788-.792-.465-.528-.698-1.308-.698-2.339v-14.336c0-2.313.816-3.469 2.45-3.469.836 0 1.438.27 1.806.81.369.54.572 1.34.608 2.395.604-1.056 1.22-1.854 1.853-2.394.633-.542 1.477-.81 2.533-.81 1.058 0 2.084.268 3.079.81.996.54 1.493 1.257 1.493 2.15 0 .628-.212 1.147-.636 1.555-.424.41-.882.613-1.373.613-.184 0-.63-.116-1.336-.348-.707-.233-1.33-.349-1.87-.349-.738 0-1.34.197-1.806.595-.468.396-.83.983-1.088 1.762-.259.78-.437 1.707-.535 2.783-.098 1.075-.148 2.385-.148 3.932" fill="#3e444b"/><path d="M505.975 135.483c6.68 5.034 4.093 19.73-5.778 32.825-9.868 13.095-23.285 19.63-29.965 14.594-6.679-5.035-4.092-19.731 5.777-32.826 9.871-13.095 23.287-19.628 29.966-14.593" fill="#00adef"/><path d="M502.863 145.093c4.629 3.49 2.836 13.676-4.004 22.75-6.843 9.077-16.14 13.605-20.771 10.116-4.63-3.49-2.836-13.675 4.005-22.751 6.842-9.075 16.139-13.603 20.77-10.115" fill="#fff"/><path d="M499.58 153.33c2.753 2.074 1.688 8.133-2.381 13.531-4.071 5.399-9.602 8.092-12.356 6.018-2.752-2.076-1.686-8.135 2.382-13.534 4.07-5.4 9.602-8.092 12.355-6.016" fill="#00adef"/></svg>