<svg xmlns="http://www.w3.org/2000/svg" height="321.333" width="321.333"><g fill="#469cdc"><path d="M301.25 301.25H20.084V20.084h281.168zm0-301.25H20.084C8.987 0 0 8.987 0 20.083V301.25c0 11.094 8.987 20.082 20.083 20.082h281.168c11.085 0 20.082-8.986 20.082-20.082V20.083C321.333 8.987 312.336 0 301.251 0"/><path d="M249.715 77.348l-2.966 2.952-5.773-5.759 2.947-2.946c.86-.854 1.973-1.33 3.149-1.347a3.868 3.868 0 0 1 2.857 1.127c1.587 1.588 1.487 4.269-.214 5.973zM143.049 183.712l-5.753-5.74 94.367-94.103 5.752 5.74zM259.28 62.071c-3.293-3.292-7.776-4.991-12.399-4.995-4.628.068-8.99 1.913-12.302 5.208l-7.918 7.91c-.033.038-.05.08-.081.113L123.286 173.312c-.336.335-.512.752-.757 1.141-.425.494-.793 1.027-1.06 1.634l-10.532 24.28a6.57 6.57 0 0 0 1.284 7.157 6.601 6.601 0 0 0 7.106 1.617l25.329-9.524c.701-.261 1.313-.676 1.872-1.141.408-.259.85-.452 1.19-.79L251.42 94.272c.019-.02.026-.045.048-.064l7.578-7.544c6.857-6.833 6.961-17.868.233-24.593"/><path d="M246.304 129.113c-3.652 0-6.605 2.95-6.605 6.586v108.806c0 3.63-2.962 6.581-6.604 6.581H76.887c-3.645 0-6.603-2.951-6.603-6.58V88.758c0-3.63 2.958-6.586 6.603-6.586h108.134c3.648 0 6.6-2.949 6.6-6.584 0-3.634-2.952-6.584-6.6-6.584H76.887c-10.924 0-19.812 8.86-19.812 19.754v155.746c0 10.893 8.888 19.751 19.812 19.751h156.208c10.924 0 19.813-8.858 19.813-19.75V135.698c0-3.636-2.956-6.586-6.604-6.586"/></g></svg>