<svg xmlns="http://www.w3.org/2000/svg" height="321.333" width="321.333"><g fill="#469cdc"><path d="M301.25 301.25H20.084V20.084h281.168zm0-301.25H20.084C8.987 0 0 8.987 0 20.083V301.25c0 11.094 8.987 20.082 20.083 20.082h281.168c11.085 0 20.082-8.986 20.082-20.082V20.083C321.333 8.987 312.336 0 301.251 0"/><path d="M123.523 227.012c3.836 3.805 10.484 3.855 14.349 0L248.32 117.568a9.977 9.977 0 0 0 0-14.199c-3.957-3.926-10.383-3.926-14.34 0L130.652 205.735l-42.988-42.136c-3.957-3.927-10.383-3.927-14.34 0a9.959 9.959 0 0 0 0 14.2l50.199 49.213"/></g></svg>