<svg xmlns="http://www.w3.org/2000/svg" height="321.333" width="321.333"><g fill="#469cdc"><path d="M89.165 221.356H66.54c-3.227 0-6.018-1.317-8.07-3.81-1.828-2.22-2.754-4.949-2.754-8.113v-26.798c0-5.332 2.459-9.35 6.757-11.06l26.31-12.223c-1.8-2.008-3.387-4.281-4.75-6.805-2.902-5.38-4.374-11.442-4.374-18.02 0-4.566.776-8.991 2.305-13.152 1.532-4.172 3.667-7.866 6.345-10.978 2.713-3.149 5.915-5.681 9.52-7.526 3.745-1.92 7.852-2.894 12.205-2.894 2.948 0 5.77.475 8.385 1.41a37.017 37.017 0 0 1 6.931 3.336l-5.59 9.084c-1.58-.971-3.238-1.771-4.93-2.376-1.461-.522-3.074-.787-4.796-.787-2.682 0-5.085.563-7.343 1.72-2.405 1.232-4.465 2.865-6.299 4.995-1.84 2.136-3.326 4.726-4.416 7.693-1.095 2.98-1.65 6.168-1.65 9.475 0 4.858 1.012 9.094 3.094 12.953 2.05 3.799 4.654 6.621 7.96 8.628a5.332 5.332 0 0 1-.522 9.396L66.81 181.32a5.869 5.869 0 0 1-.297.128c-.053.17-.13.535-.13 1.187v26.798c0 .762.158 1.1.26 1.253l22.523.003zm165.627 0h-23.283v-10.667h23.176c.12-.18.267-.522.267-1.256v-26.798c0-1.099-.225-1.212-.568-1.383l-33.519-15.992a5.333 5.333 0 0 1-.62-9.277c3.036-1.984 5.618-4.92 7.672-8.724 2.08-3.859 3.094-8.024 3.094-12.732 0-3.308-.556-6.495-1.651-9.472-1.092-2.97-2.577-5.559-4.419-7.7a20.124 20.124 0 0 0-6.361-4.967c-2.344-1.173-4.796-1.744-7.497-1.744-1.73 0-3.358.29-4.976.883a21.952 21.952 0 0 0-4.948 2.561l-6.075-8.767a32.581 32.581 0 0 1 7.35-3.809 25.056 25.056 0 0 1 8.649-1.535c4.334 0 8.462.966 12.269 2.871a31.032 31.032 0 0 1 9.675 7.55c2.678 3.114 4.813 6.807 6.344 10.977 1.53 4.157 2.306 8.584 2.306 13.152 0 6.43-1.472 12.418-4.373 17.798-1.353 2.507-2.895 4.763-4.613 6.759l26.377 12.585c4.256 2.13 6.55 6.007 6.55 10.966v26.798c0 3.16-.923 5.887-2.749 8.108-2.058 2.498-4.849 3.815-8.077 3.815zm-148.585-36.337c-.789.401-1.384.884-1.384 2.668v33.389c0 .961.237 1.681.77 2.333.378.46.53.46.706.46h107.857c.417 0 .599-.064.927-.461.53-.65.769-1.37.769-2.332v-33.39c0-1.806-.61-2.277-1.415-2.682l-29.173-14.039-12.49-5.917a5.334 5.334 0 0 1-.477-9.383c4.652-2.817 8.127-6.918 10.626-12.541a37.02 37.02 0 0 0 3.054-14.748c0-2.528-.326-5.459-.969-8.713-1.668-6.586-4.74-11.866-9.388-16.136-4.439-4.079-9.439-6.063-15.283-6.063-5.713 0-10.614 1.921-14.985 5.872-4.619 4.176-7.735 9.38-9.527 15.907a46.684 46.684 0 0 0-.981 4.518 28.247 28.247 0 0 0-.367 4.615c0 5.432 1.216 10.616 3.611 15.407l.067.136c2.494 5.366 5.984 9.352 10.665 12.185a5.332 5.332 0 0 1-.52 9.403zm107.949 49.517H106.299c-3.52 0-6.619-1.51-8.96-4.372-2.112-2.58-3.183-5.639-3.183-9.088v-33.39c0-5.525 2.607-9.871 7.34-12.238l.143-.07L136 159.446c-3.02-3.096-5.524-6.76-7.486-10.957-3.121-6.267-4.704-13.033-4.704-20.112 0-2.188.173-4.33.512-6.37.322-1.927.73-3.803 1.214-5.578 2.316-8.436 6.575-15.501 12.662-21.004 6.329-5.724 13.778-8.627 22.138-8.627 8.522 0 16.091 2.986 22.5 8.875 6.176 5.675 10.398 12.917 12.55 21.525.021.083.038.166.056.248.797 3.992 1.201 7.67 1.201 10.931 0 6.561-1.33 12.964-3.95 19.03-2.007 4.514-4.577 8.4-7.686 11.634l4.853 2.299 29.243 14.073c.025.01.05.023.073.036 4.735 2.367 7.342 6.713 7.342 12.239v33.389c0 3.45-1.071 6.508-3.183 9.088-2.343 2.861-5.517 4.372-9.18 4.372"/><path d="M301.25 301.25H20.084V20.084h281.168zm0-301.25H20.084C8.987 0 0 8.987 0 20.083V301.25c0 11.094 8.987 20.082 20.083 20.082h281.168c11.086 0 20.084-8.986 20.084-20.082V20.083C321.335 8.987 312.337 0 301.25 0"/></g></svg>