<?xml version="1.0" encoding="UTF-8" standalone="no"?>
<!-- Created with Inkscape (http://www.inkscape.org/) -->

<svg
   version="1.1"
   id="svg2509"
   width="511"
   height="432.18652"
   viewBox="0 0 511 432.18652"
   sodipodi:docname="picto-identification_BK.svg"
   inkscape:version="1.1 (c4e8f9ed74, 2021-05-24)"
   xmlns:inkscape="http://www.inkscape.org/namespaces/inkscape"
   xmlns:sodipodi="http://sodipodi.sourceforge.net/DTD/sodipodi-0.dtd"
   xmlns="http://www.w3.org/2000/svg"
   xmlns:svg="http://www.w3.org/2000/svg">
  <defs
     id="defs2513" />
  <sodipodi:namedview
     id="namedview2511"
     pagecolor="#ffffff"
     bordercolor="#666666"
     borderopacity="1.0"
     inkscape:pageshadow="2"
     inkscape:pageopacity="0.0"
     inkscape:pagecheckerboard="true"
     showgrid="false"
     fit-margin-top="0"
     fit-margin-left="0"
     fit-margin-right="0"
     fit-margin-bottom="0"
     inkscape:zoom="1.3047998"
     inkscape:cx="347.17969"
     inkscape:cy="236.43474"
     inkscape:window-width="1920"
     inkscape:window-height="1056"
     inkscape:window-x="0"
     inkscape:window-y="0"
     inkscape:window-maximized="1"
     inkscape:current-layer="g2515" />
  <g
     inkscape:groupmode="layer"
     inkscape:label="Image"
     id="g2515"
     transform="translate(-158.26533,-98.925118)">
    <path
       style="fill:#ffffff;fill-opacity:1"
       d="m 176.75885,530.49503 c -6.88454,-2.10585 -13.03473,-7.30877 -16.63157,-14.06991 -1.79788,-3.37957 -1.86195,-10.31313 -1.86195,-201.5 v -198 l 2.16237,-4 c 2.5491,-4.71539 7.45197,-9.53895 12.33763,-12.13805 3.38521,-1.800885 11.28932,-1.861952 241,-1.861952 h 237.5 l 4,2.162372 c 4.71539,2.5491 9.53894,7.45197 12.13805,12.33763 1.79788,3.37956 1.86195,10.31313 1.86195,201.5 0,191.18687 -0.0641,198.12043 -1.86195,201.5 -2.59911,4.88565 -7.42266,9.78853 -12.13805,12.33763 l -4,2.16237 -236,0.16829 c -129.8,0.0926 -237.12792,-0.17671 -238.50648,-0.59838 z m 471.00648,-21.06991 c 1.98615,-1.98615 2,-3.33333 2,-194.5 0,-191.16667 -0.0138,-192.51385 -2,-194.5 -1.98851,-1.98851 -3.33333,-2 -234,-2 -230.66667,0 -232.0115,0.0115 -234,2 -1.98615,1.98615 -2,3.33333 -2,194.5 0,191.16667 0.0138,192.51385 2,194.5 1.9885,1.98851 3.33333,2 234,2 230.66667,0 232.01149,-0.0115 234,-2 z M 214.06788,486.22808 c -5.51553,-2.6648 -5.30381,2.2781 -5.28781,-123.45409 0.0115,-90.61301 0.28685,-116.39346 1.26391,-118.34887 0.68704,-1.375 2.81791,-3.2868 4.73526,-4.24845 3.25867,-1.63438 11.0289,-1.74854 119.11109,-1.75 63.59375,-8.5e-4 117.02486,0.27842 118.7358,0.62061 1.71093,0.34219 4.24218,1.75355 5.625,3.13636 l 2.5142,2.51421 v 118.44056 118.44056 l -2.92308,2.92307 -2.92307,2.92308 -119.32693,-0.0677 c -81.99367,-0.0465 -120.01443,-0.39984 -121.52437,-1.12936 z M 440.76533,362.92055 V 258.41599 l -105.75,0.25456 -105.75,0.25457 -0.25463,104.25 -0.25463,104.25 H 334.7607 440.76533 Z m -161.15253,72.50589 -2.99868,-2.99869 0.3256,-13.75131 c 0.28039,-11.84142 0.63877,-14.38681 2.58038,-18.32689 3.66438,-7.43609 8.74356,-12.55213 16.01618,-16.13243 l 6.687,-3.292 h 33.02102 33.02103 l 5.69009,2.79424 c 8.21385,4.03358 15.2199,12.05571 17.78682,20.36641 2.28391,7.39445 2.83678,24.87974 0.90605,28.65509 -3.22902,6.31403 -11.05337,7.6677 -15.95988,2.76118 -2.85064,-2.85063 -2.92349,-3.17901 -2.93953,-13.25 -0.0141,-8.83874 -0.33832,-10.88834 -2.25,-14.22282 -4.1931,-7.31386 -5.58691,-7.6041 -36.51761,-7.6041 -29.43645,0 -30.20158,0.11896 -35.20441,5.47327 -2.27335,2.43308 -2.53595,3.67311 -3.03781,14.34502 -0.58119,12.35865 -1.53175,15.20368 -5.71688,17.11055 -4.26981,1.94545 -8.20044,1.28141 -11.40937,-1.92752 z m 44.43857,-72.45207 c -10.24782,-3.20269 -19.41412,-11.32357 -24.12563,-21.3741 -2.33495,-4.98089 -2.65661,-6.89848 -2.62932,-15.67515 0.0274,-8.81748 0.35414,-10.66504 2.763,-15.62399 3.79267,-7.80766 9.52804,-13.97201 16.38498,-17.61051 16.31882,-8.65925 34.233,-5.68862 46.66372,7.73803 7.19403,7.77041 9.88137,14.67898 9.91779,25.49647 0.0593,17.62984 -10.56304,32.04915 -27.19208,36.91174 -6.48335,1.89584 -15.96471,1.95569 -21.78246,0.13751 z m 18.62801,-20.5054 c 4.56068,-2.32669 8.86008,-7.16014 9.66976,-10.87092 0.32078,-1.47011 0.76897,-3.26785 0.99597,-3.99497 0.95916,-3.07229 -2.00441,-10.60259 -5.57978,-14.17796 -7.17858,-7.17858 -17.30546,-7.33259 -25.00089,-0.38023 -15.08336,13.62691 1.84718,38.64156 19.91494,29.42408 z m 166.27182,114.4591 c -3.60665,-3.0348 -4.63695,-6.60614 -3.17967,-11.02173 2.18794,-6.62952 1.0312,-6.48362 51.20862,-6.45898 41.39695,0.0203 45.46832,0.17058 47.41814,1.75 5.36625,4.34682 5.47954,11.27242 0.25631,15.66748 l -3.04272,2.56028 h -44.84655 -44.84655 z m -10.69066,-57.91683 c -4.66714,-4.66714 -4.28186,-11.16305 0.89117,-15.02527 2.70897,-2.02254 3.78003,-2.06085 57.61362,-2.06085 53.83359,0 54.90465,0.0383 57.61362,2.06085 5.17303,3.86222 5.55831,10.35813 0.89117,15.02527 l -2.41388,2.41388 h -56.09091 -56.09091 z m 2.00479,-55.79394 c -6.71778,-3.85264 -6.65993,-14.57576 0.0952,-17.65362 3.63506,-1.65625 109.2897,-1.60374 112.9327,0.0561 2.866,1.30583 5.47206,5.49935 5.47206,8.80531 0,3.30596 -2.60606,7.49948 -5.47206,8.80531 -3.66079,1.66797 -110.11821,1.6556 -113.02794,-0.0131 z m 1.52056,-56.89099 c -3.86546,-1.56913 -5.92795,-3.89062 -6.5895,-7.417 -0.69848,-3.72319 1.51477,-8.84965 4.51355,-10.45455 2.64745,-1.41687 111.46333,-1.41687 114.11078,0 5.36302,2.87021 6.0965,11.59956 1.34946,16.06043 l -2.56454,2.40993 -54.17015,0.20384 c -34.52205,0.12991 -55.06948,-0.16122 -56.6496,-0.80265 z M 317.06014,202.31795 c -6.13921,-1.77517 -6.29819,-2.57133 -6.26301,-31.36534 0.0334,-27.3095 0.13256,-27.95684 4.65246,-30.36415 3.13367,-1.669 193.49781,-1.669 196.63148,0 4.5199,2.40731 4.61909,3.05465 4.65246,30.36415 0.0356,29.11476 -0.0625,29.57141 -6.74768,31.42807 -4.77668,1.32661 -188.32726,1.26693 -192.92571,-0.0627 z m 179.70519,-30.89283 v -12 h -83 -83 v 12 12 h 83 83 z"
       id="path2814" />
  </g>
</svg>
