<?xml version="1.0" encoding="utf-8"?>
<!-- Generator: Adobe Illustrator 16.0.4, SVG Export Plug-In . SVG Version: 6.00 Build 0)  -->
<!DOCTYPE svg PUBLIC "-//W3C//DTD SVG 1.1//EN" "http://www.w3.org/Categories/SVG/1.1/DTD/svg11.dtd">
<svg version="1.1" id="Calque_1" xmlns="http://www.w3.org/2000/svg" xmlns:xlink="http://www.w3.org/1999/xlink" x="0px" y="0px"
	 width="123.471px" height="123.469px" viewBox="0 0 123.471 123.469" enable-background="new 0 0 123.471 123.469"
	 xml:space="preserve">
<g>
	<path fill="#FFFFFF" d="M61.351,96.023h16.191V88.43H61.351v-6.962h17.141v-7.595H59.268l30.04-41.565
		c0.76,0.187,1.547,0.297,2.359,0.297l0.201-0.002c2.685-0.056,5.179-1.15,7.032-3.081c1.853-1.931,2.842-4.467,2.787-7.142
		c-0.113-5.39-4.422-9.698-9.81-9.809l-0.202-0.002h-0.005h-0.005c-5.408,0-9.899,4.401-10.012,9.812
		c-0.002,0.138-0.002,0.274,0,0.408c0.035,1.673,0.489,3.249,1.259,4.628l-21.52,29.775L35.532,26.257
		c0.786-1.485,1.191-3.15,1.155-4.876c-0.113-5.39-4.422-9.698-9.81-9.809l-0.202-0.002h-0.005h-0.005
		c-5.409,0-9.9,4.401-10.012,9.812c-0.002,0.138-0.002,0.274,0,0.408c0.112,5.415,4.604,9.815,10.013,9.815l0.201-0.002
		c0.81-0.017,1.599-0.139,2.362-0.34l9.716,11.623c-1.006-0.35-2.073-0.617-3.218-0.777c-1.929-0.27-3.849-0.405-5.757-0.405H13.54
		V85.77h18.049c1.95,0,3.91-0.207,5.882-0.622c1.891-0.398,3.597-1.052,5.126-1.947l-9.901,13.7
		c-0.743-0.191-1.517-0.312-2.318-0.328l-0.202-0.002h-0.005h-0.005c-5.409,0-9.9,4.401-10.012,9.812
		c-0.002,0.138-0.002,0.273,0,0.408c0.112,5.414,4.604,9.815,10.013,9.815l0.201-0.002c2.686-0.056,5.179-1.149,7.033-3.081
		c1.853-1.931,2.842-4.467,2.787-7.142c-0.034-1.626-0.456-3.149-1.167-4.493l14.103-19.513v28.838h26.317v-7.595h-18.09V96.023z
		 M91.666,18.57l0.091,0.002c2.158,0.043,3.887,1.771,3.931,3.931c0.022,1.071-0.375,2.088-1.119,2.864
		c-0.744,0.776-1.743,1.215-2.814,1.237l-0.096,0.002c-2.164-0.004-3.96-1.768-4.004-3.934v-0.188
		C87.698,20.335,89.498,18.57,91.666,18.57z M22.655,21.484c0.044-2.149,1.844-3.914,4.012-3.914l0.09,0.002
		c2.159,0.043,3.887,1.771,3.931,3.931c0.022,1.071-0.375,2.088-1.119,2.864c-0.744,0.776-1.744,1.215-2.814,1.237l-0.095,0.002
		c-2.165-0.004-3.96-1.768-4.004-3.934V21.484z M23.249,49.921h6.598c0.746,0,1.514,0.072,2.303,0.218
		c0.787,0.146,1.493,0.384,2.116,0.716c0.622,0.332,1.13,0.799,1.524,1.4c0.394,0.602,0.591,1.359,0.591,2.271
		c0,0.871-0.177,1.618-0.528,2.24c-0.354,0.622-0.82,1.12-1.4,1.494c-0.582,0.373-1.235,0.644-1.961,0.809
		c-0.727,0.166-1.462,0.249-2.209,0.249h-7.033V49.921z M37.844,74.815c-0.395,0.664-0.902,1.204-1.524,1.618
		c-0.623,0.415-1.318,0.706-2.085,0.871c-0.769,0.167-1.525,0.249-2.272,0.249h-8.713v-10.02h7.344c0.788,0,1.639,0.062,2.552,0.187
		c0.912,0.124,1.764,0.353,2.552,0.685s1.441,0.819,1.961,1.463c0.519,0.644,0.778,1.483,0.778,2.521
		C38.436,73.344,38.238,74.152,37.844,74.815z M47.459,69.525c-0.457-1.245-1.109-2.334-1.959-3.268
		c-0.852-0.934-1.867-1.701-3.051-2.303c-1.182-0.601-2.5-1.006-3.952-1.214v-0.124c2.282-0.705,4.118-1.877,5.509-3.517
		c1.389-1.639,2.084-3.703,2.084-6.192c0-0.552-0.032-1.071-0.082-1.573l10.522,12.588l-8.596,11.893
		c0.125-0.727,0.21-1.483,0.21-2.307C48.145,72.099,47.916,70.771,47.459,69.525z M26.155,106.484
		c0.044-2.149,1.844-3.914,4.012-3.914l0.09,0.002c2.159,0.044,3.887,1.771,3.931,3.931c0.022,1.071-0.375,2.088-1.119,2.864
		c-0.744,0.775-1.744,1.215-2.814,1.236l-0.095,0.002c-2.165-0.005-3.96-1.768-4.004-3.934V106.484z"/>
	<path fill="#FFFFFF" d="M108.922,94.652c-0.844-1.3-1.908-2.338-3.191-3.111c-1.283-0.772-2.663-1.371-4.14-1.793
		s-2.857-0.844-4.14-1.266c-1.284-0.422-2.348-0.932-3.191-1.529s-1.266-1.459-1.266-2.585c0-0.702,0.176-1.3,0.527-1.793
		c0.352-0.492,0.809-0.888,1.371-1.187c0.562-0.298,1.16-0.519,1.793-0.659c0.633-0.14,1.248-0.211,1.847-0.211
		c1.019,0,2.101,0.203,3.243,0.606c1.142,0.404,2.048,1.028,2.716,1.872l5.644-6.17c-1.582-1.406-3.358-2.408-5.327-3.007
		c-1.97-0.597-4.008-0.896-6.117-0.896c-1.829,0-3.604,0.256-5.327,0.765c-1.723,0.511-3.243,1.275-4.562,2.294
		c-1.318,1.021-2.374,2.286-3.165,3.798s-1.187,3.27-1.187,5.273c0,2.075,0.431,3.745,1.292,5.011s1.942,2.286,3.244,3.059
		c1.3,0.774,2.707,1.39,4.219,1.846c1.512,0.458,2.918,0.915,4.22,1.372c1.3,0.457,2.381,1.011,3.243,1.661
		c0.861,0.65,1.292,1.538,1.292,2.663c0,0.668-0.167,1.248-0.501,1.74c-0.335,0.493-0.773,0.896-1.318,1.213
		c-0.546,0.316-1.16,0.554-1.846,0.712s-1.363,0.237-2.031,0.237c-1.371,0-2.698-0.307-3.981-0.923
		c-1.284-0.614-2.347-1.484-3.19-2.61l-5.854,6.435c1.793,1.652,3.727,2.848,5.802,3.586c2.074,0.738,4.324,1.107,6.75,1.107
		c1.934,0,3.771-0.246,5.512-0.738s3.27-1.248,4.588-2.268s2.364-2.303,3.139-3.851c0.772-1.546,1.16-3.356,1.16-5.432
		C110.188,97.694,109.766,95.954,108.922,94.652z"/>
</g>
</svg>
