<svg xmlns="http://www.w3.org/2000/svg" width="123.471" height="123.469"><g fill="none" stroke="#fff" stroke-miterlimit="10"><path d="M119.47 119.47H4V4h115.47zM17.659 36.536h85.486" stroke-width="8"/><path d="M29.028 26.852a7.018 7.018 0 1 1-14.037-.002 7.018 7.018 0 0 1 14.037.002zm38.035 0a7.017 7.017 0 1 1-14.035 0 7.017 7.017 0 1 1 14.035 0zm38.258 0a7.017 7.017 0 1 1-14.035 0 7.017 7.017 0 1 1 14.035 0z" stroke-width="4"/><path d="M60.045 33.87l-.4 59.443m-4.027 0h40.51" stroke-width="8"/><path d="M110.163 93.313a7.018 7.018 0 1 1-14.033.001 7.018 7.018 0 0 1 14.033 0z" stroke-width="4"/></g></svg>