<svg xmlns="http://www.w3.org/2000/svg" width="123.471" height="123.471"><g fill="none" stroke="#fff" stroke-miterlimit="10"><path d="M119.47 119.47H4V4h115.47z" stroke-width="8"/><path d="M26.43 61.736a7.017 7.017 0 0 1-7.018 7.016 7.016 7.016 0 1 1 0-14.033 7.017 7.017 0 0 1 7.019 7.017zm84.75 0a7.018 7.018 0 0 1-7.019 7.016 7.016 7.016 0 1 1 0-14.033 7.018 7.018 0 0 1 7.019 7.017z" stroke-width="4"/><path d="M89.047 61.736h8.097" stroke-width="8"/><path d="M90.604 105.036H32.868V18.435h57.736z" stroke-width="4"/><path d="M50.304 44.51a3.51 3.51 0 1 1-7.02 0 3.51 3.51 0 0 1 7.02 0zm14.94 0a3.51 3.51 0 1 1-7.02.002 3.51 3.51 0 0 1 7.02-.001zm15.681 0a3.51 3.51 0 1 1-7.02.002 3.51 3.51 0 0 1 7.02-.001zM70.292 89.573H52.969V63.591h17.323z" stroke-width="2.667"/><path d="M24.53 61.736h8.098" stroke-width="8"/></g></svg>