<svg xmlns="http://www.w3.org/2000/svg" width="123.47" height="123.472"><path stroke-miterlimit="10" d="M119.47 119.472H4V4h115.47zM19.166 70.61h85.487" fill="none" stroke="#fff" stroke-width="8"/><path stroke-miterlimit="10" d="M36.014 101.95c-3.514 4.597-7.313 7.602-8.482 6.708-1.168-.894.734-5.346 4.25-9.944 3.515-4.596 7.314-7.6 8.482-6.706 1.169.893-.734 5.346-4.25 9.943z" fill="none" stroke="#fff" stroke-width="4"/><path stroke-miterlimit="10" d="M60.84 18.039l-.172 22.833m-3.44-19.587h59.969M100.7 72.48c0-18.5-17.446-33.493-38.966-33.493-21.518 0-38.964 14.994-38.964 33.493" fill="none" stroke="#fff" stroke-width="8"/><path stroke-miterlimit="10" d="M39.243 69.813c-.005 10.76 10.14 19.487 22.66 19.492 12.517.005 22.669-8.713 22.674-19.474" fill="none" stroke="#fff" stroke-width="5.333"/><path stroke-miterlimit="10" d="M93.016 98.853c3.209 4.817 4.82 9.383 3.594 10.2-1.222.816-4.82-2.43-8.028-7.244-3.21-4.817-4.82-9.382-3.596-10.198 1.226-.816 4.82 2.428 8.03 7.242zm-29.133 5.262c.085 4.733-.958 8.59-2.327 8.616-1.37.023-2.548-3.795-2.632-8.528-.084-4.731.958-8.59 2.329-8.614 1.368-.024 2.547 3.796 2.63 8.527z" fill="none" stroke="#fff" stroke-width="4"/></svg>