<svg id="svg" xmlns="http://www.w3.org/2000/svg" xmlns:xlink="http://www.w3.org/1999/xlink" width="400" height="400" viewBox="0, 0, 400,400"><g id="svgg"><path id="path0" d="M192.818 3.695 C 185.603 6.972,181.433 14.530,182.059 23.195 L 182.343 27.132 177.600 27.906 C 144.732 33.274,115.117 45.596,93.910 62.728 L 90.202 65.724 86.845 62.267 C 76.823 51.948,62.071 53.241,56.089 64.962 C 52.436 72.119,54.459 81.062,61.271 87.874 L 64.434 91.037 58.446 99.368 C 42.231 121.925,31.281 149.003,27.490 175.915 L 26.388 183.735 22.470 183.198 C 11.148 181.646,0.952 190.289,0.952 201.438 C 0.952 212.419,11.254 221.197,22.355 219.675 L 26.388 219.122 27.490 226.942 C 31.301 254.000,43.537 283.615,59.709 304.928 C 64.599 311.372,64.595 311.339,60.882 315.314 C 42.109 335.410,67.814 360.185,86.972 340.459 L 90.241 337.092 95.265 341.064 C 115.553 357.100,143.384 368.892,173.315 374.133 L 182.345 375.714 182.060 379.656 C 181.162 392.053,188.356 400.000,200.476 400.000 C 212.358 400.000,219.696 392.050,218.864 380.078 L 218.571 375.871 232.381 373.147 C 261.445 367.414,282.423 357.974,309.036 338.652 C 309.862 338.052,311.684 338.997,314.880 341.686 C 335.495 359.028,358.925 333.919,339.622 315.171 L 336.245 311.890 342.376 303.326 C 358.320 281.057,369.481 253.535,373.356 226.937 L 374.495 219.113 378.563 219.670 C 383.771 220.384,391.230 217.972,394.558 214.498 C 406.858 201.657,396.198 180.770,378.577 183.185 L 374.754 183.709 372.529 171.140 C 367.749 144.133,355.260 115.383,339.831 95.863 L 336.084 91.123 339.617 87.704 C 359.142 68.806,335.149 43.791,314.473 61.490 C 309.807 65.483,310.121 65.480,305.336 61.562 C 285.814 45.574,255.795 33.250,223.333 27.895 L 218.571 27.110 218.879 23.202 C 220.065 8.158,206.063 -2.322,192.818 3.695 M184.199 67.857 C 184.461 69.560,185.148 82.738,185.724 97.143 C 186.301 111.548,186.974 124.307,187.219 125.497 C 187.480 126.759,187.160 127.813,186.452 128.026 C 185.784 128.227,181.595 129.485,177.143 130.823 C 172.690 132.161,166.609 134.726,163.628 136.524 L 158.209 139.793 139.753 119.658 C 129.603 108.584,119.938 97.971,118.276 96.074 L 115.254 92.624 122.151 87.979 C 136.740 78.152,155.200 70.426,173.113 66.649 C 184.049 64.343,183.652 64.300,184.199 67.857 M233.436 68.140 C 252.012 72.705,286.003 89.713,284.779 93.829 C 284.626 94.342,275.107 104.894,263.626 117.277 L 242.751 139.792 236.375 136.127 C 232.869 134.112,226.357 131.410,221.905 130.123 L 213.810 127.784 213.947 124.606 C 214.023 122.859,214.583 109.643,215.191 95.238 C 215.799 80.833,216.500 68.066,216.748 66.867 C 217.272 64.327,218.219 64.400,233.436 68.140 M120.754 141.905 L 138.890 158.571 136.997 161.429 C 133.813 166.233,130.366 174.421,128.588 181.401 L 126.897 188.040 119.086 187.744 C 94.209 186.802,64.771 185.089,64.235 184.552 C 60.419 180.737,75.923 139.663,87.266 123.540 L 92.481 116.127 97.549 120.682 C 100.337 123.188,110.780 132.738,120.754 141.905 M314.620 125.032 C 326.115 142.414,340.357 180.913,336.661 184.609 C 336.170 185.100,305.771 186.838,281.807 187.747 L 273.937 188.045 272.213 181.030 C 271.265 177.173,268.617 170.497,266.329 166.196 L 262.169 158.376 285.105 137.358 C 297.721 125.798,308.358 116.535,308.744 116.773 C 309.130 117.012,311.774 120.728,314.620 125.032 M214.521 166.650 C 230.214 172.545,240.538 191.542,237.131 208.253 C 229.132 247.484,174.116 249.139,164.203 210.446 C 156.672 181.047,185.666 155.810,214.521 166.650 M128.668 221.944 C 129.639 225.851,132.179 232.446,134.313 236.600 L 138.193 244.152 135.525 246.685 C 134.058 248.079,125.786 255.794,117.143 263.830 C 108.500 271.866,99.437 280.339,97.003 282.659 L 92.578 286.877 87.629 279.867 C 76.098 263.535,60.394 222.146,64.261 218.279 C 64.811 217.729,123.677 214.328,126.071 214.708 C 126.529 214.781,127.698 218.037,128.668 221.944 M311.622 216.519 C 325.086 217.162,336.354 217.942,336.664 218.251 C 341.434 223.021,314.056 287.731,308.032 285.924 C 307.543 285.777,296.988 276.194,284.577 264.629 L 262.012 243.602 264.148 240.134 C 267.374 234.897,271.191 225.804,272.364 220.561 C 273.757 214.331,273.284 214.648,280.645 215.020 C 284.219 215.201,298.159 215.875,311.622 216.519 M179.972 272.943 L 187.088 275.010 186.802 282.505 C 185.905 306.009,184.122 337.148,183.645 337.625 C 179.800 341.469,138.729 325.987,122.501 314.576 L 115.103 309.374 119.700 304.449 C 122.228 301.740,131.910 291.334,141.216 281.325 L 158.136 263.126 165.496 267.001 C 169.545 269.132,176.059 271.806,179.972 272.943 M258.181 279.731 C 266.777 289.012,276.513 299.483,279.817 303.001 L 285.825 309.397 279.015 314.179 C 261.507 326.474,220.069 341.878,217.161 337.171 C 216.813 336.610,216.008 324.052,215.371 309.265 C 214.735 294.479,213.978 280.775,213.690 278.812 C 213.322 276.299,213.544 275.127,214.440 274.854 C 215.141 274.641,219.357 273.370,223.810 272.030 C 229.848 270.213,240.718 264.925,242.467 262.954 C 242.514 262.901,249.586 270.451,258.181 279.731 " stroke="none" fill="#ffffff" fill-rule="evenodd"></path></g></svg>