<svg id="svg" xmlns="http://www.w3.org/2000/svg" xmlns:xlink="http://www.w3.org/1999/xlink" width="400" height="457.14285714285717" viewBox="0, 0, 400,457.14285714285717"><g id="svgg"><path id="path0" d="M128.556 2.225 C 112.227 7.192,99.681 17.680,91.343 33.333 C 87.153 41.200,86.905 49.733,86.905 185.714 C 86.905 387.166,72.598 370.238,242.857 370.238 C 371.494 370.238,367.386 370.735,383.657 353.194 C 399.226 336.410,398.742 340.421,399.496 222.024 L 400.183 114.286 353.545 114.286 C 284.263 114.286,285.714 115.735,285.714 46.547 L 285.714 0.000 210.119 0.205 C 168.542 0.317,131.838 1.226,128.556 2.225 M314.286 44.048 L 314.286 85.714 356.522 85.714 L 398.758 85.714 357.143 44.048 C 334.254 21.131,315.248 2.381,314.906 2.381 C 314.565 2.381,314.286 21.131,314.286 44.048 M11.952 88.676 C 0.099 94.867,0.070 95.204,0.076 225.000 C 0.084 378.658,1.533 386.485,36.423 421.375 C 69.599 454.551,84.356 457.570,208.865 456.646 C 315.490 455.854,312.987 456.357,312.987 435.714 C 312.987 414.986,316.405 415.644,201.723 414.286 L 101.190 413.095 87.758 406.499 C 72.087 398.803,56.480 382.852,49.193 367.085 C 44.171 356.220,44.019 352.847,42.857 226.849 C 41.703 101.674,41.522 97.601,36.896 92.979 C 30.667 86.753,19.366 84.803,11.952 88.676 " stroke="none" fill="#ffffff" fill-rule="evenodd"></path></g></svg>