<svg id="svg" xmlns="http://www.w3.org/2000/svg" xmlns:xlink="http://www.w3.org/1999/xlink" width="400" height="400" viewBox="0, 0, 400,400"><g id="svgg"><path id="path0" d="M189.819 26.158 C 185.440 27.560,178.598 32.297,175.694 35.938 C 171.753 40.877,2.867 329.192,1.336 333.594 C -3.728 348.150,3.516 365.417,17.578 372.311 L 22.266 374.609 200.000 374.609 L 377.734 374.609 382.422 372.311 C 396.078 365.616,403.315 349.188,399.037 334.596 C 397.123 328.066,227.031 38.778,222.266 33.947 C 214.464 26.038,200.593 22.708,189.819 26.158 M244.553 131.023 C 249.028 134.116,250.535 136.845,250.725 142.205 C 250.876 146.451,250.441 147.890,246.204 157.184 C 245.284 159.201,244.531 161.046,244.531 161.283 C 244.531 161.520,243.526 163.913,242.297 166.599 C 241.068 169.286,239.334 173.242,238.443 175.391 C 237.553 177.539,235.858 181.406,234.677 183.984 C 233.496 186.563,232.488 188.848,232.438 189.063 C 232.021 190.823,230.648 194.201,228.471 198.828 C 227.055 201.836,224.607 207.461,223.032 211.328 C 221.456 215.195,219.805 218.799,219.363 219.336 C 218.723 220.113,223.425 220.313,242.432 220.313 C 268.616 220.313,268.830 220.345,273.409 225.064 C 276.501 228.250,276.563 228.423,276.563 233.949 C 276.563 240.744,275.493 242.049,257.002 257.813 C 254.734 259.746,252.318 261.896,251.634 262.591 C 250.950 263.285,241.074 272.030,229.688 282.023 C 218.301 292.017,207.930 301.124,206.641 302.261 C 205.352 303.398,201.484 306.766,198.047 309.744 C 194.609 312.722,190.362 316.496,188.608 318.131 C 186.853 319.765,183.451 322.630,181.047 324.496 C 177.207 327.478,174.268 330.020,169.567 334.422 C 161.904 341.598,148.404 338.698,146.560 329.479 C 145.376 323.560,145.869 321.316,150.671 310.785 C 151.591 308.768,152.344 306.923,152.344 306.686 C 152.344 306.448,153.349 304.056,154.578 301.369 C 155.807 298.683,157.541 294.727,158.432 292.578 C 159.322 290.430,161.017 286.563,162.198 283.984 C 163.379 281.406,164.387 279.121,164.437 278.906 C 164.854 277.146,166.227 273.768,168.404 269.141 C 169.820 266.133,172.268 260.508,173.843 256.641 C 175.419 252.773,177.070 249.170,177.512 248.633 C 178.152 247.855,173.450 247.656,154.443 247.656 C 128.001 247.656,127.632 247.598,123.242 242.751 C 120.434 239.650,120.313 239.285,120.313 233.950 C 120.313 227.236,121.422 225.886,139.873 210.156 C 142.141 208.223,144.557 206.072,145.241 205.378 C 145.925 204.684,155.801 195.939,167.188 185.946 C 178.574 175.952,188.945 166.845,190.234 165.708 C 191.523 164.570,195.391 161.203,198.828 158.225 C 202.266 155.247,206.513 151.473,208.267 149.838 C 210.022 148.204,213.424 145.339,215.828 143.472 C 219.668 140.490,222.607 137.949,227.308 133.546 C 231.795 129.345,240.320 128.097,244.553 131.023 " stroke="none" fill="#fff" fill-rule="evenodd"></path></g></svg>