<svg id="svg" xmlns="http://www.w3.org/2000/svg" xmlns:xlink="http://www.w3.org/1999/xlink"
    width="400" height="355.55555555555554" viewBox="0, 0, 400,355.55555555555554">
    <g id="svgg">
        <path id="path0"
            d="M170.837 23.365 C 163.976 25.800,159.018 30.821,156.684 37.698 C 155.696 40.606,155.556 45.796,155.556 79.260 L 155.556 117.500 153.194 119.861 C 151.697 121.358,150.160 122.222,148.993 122.222 C 144.546 122.222,143.969 121.417,126.756 91.189 C 117.662 75.219,109.866 61.764,109.431 61.290 C 108.055 59.787,91.366 69.970,79.460 79.576 C 53.960 100.150,34.675 130.540,26.838 162.500 C 23.066 177.881,22.750 181.566,22.413 214.063 L 22.098 244.444 157.577 244.444 L 293.056 244.444 293.071 221.701 C 293.094 187.650,293.779 186.794,320.985 186.821 C 347.900 186.847,348.611 187.749,348.611 221.853 L 348.611 244.444 363.256 244.444 L 377.902 244.444 377.594 214.063 C 377.259 181.058,376.882 176.836,372.877 161.304 C 362.180 119.816,334.193 83.923,296.448 63.286 C 292.351 61.045,291.007 60.592,290.480 61.274 C 290.105 61.757,282.354 75.219,273.254 91.189 C 254.558 124.001,254.198 124.429,247.966 121.206 C 244.812 119.575,244.808 119.520,244.444 78.125 L 244.097 38.542 242.378 35.069 C 240.185 30.642,236.024 26.481,231.597 24.289 L 228.125 22.569 201.042 22.413 C 177.745 22.279,173.522 22.412,170.837 23.365 M315.373 198.867 C 305.586 202.409,304.559 205.749,304.299 234.855 L 304.085 258.946 279.994 259.161 C 256.360 259.371,255.840 259.406,252.606 260.999 C 239.991 267.211,239.991 284.178,252.606 290.390 C 255.840 291.983,256.360 292.018,279.994 292.228 L 304.085 292.443 304.299 316.555 L 304.514 340.666 306.288 344.112 C 312.417 356.015,329.249 356.015,335.379 344.112 L 337.153 340.666 337.367 316.555 L 337.582 292.443 361.693 292.228 L 385.805 292.014 389.250 290.240 C 401.154 284.110,401.154 267.278,389.250 261.149 L 385.805 259.375 361.693 259.161 L 337.582 258.946 337.367 234.855 C 337.129 208.103,337.152 208.249,332.328 202.909 C 328.310 198.462,321.186 196.764,315.373 198.867 M6.224 268.229 C -3.191 272.976,-1.969 282.322,9.035 289.736 C 64.845 327.342,181.421 343.177,283.507 327.020 L 293.056 325.509 293.056 314.491 L 293.056 303.472 268.728 303.472 C 241.909 303.472,241.438 303.408,236.894 299.097 C 232.499 294.927,231.977 292.799,231.960 278.993 L 231.944 266.667 120.633 266.667 L 9.322 266.667 6.224 268.229 "
            stroke="none" fill="#fff" fill-rule="evenodd"></path>
    </g>
</svg>