<svg id="svg" xmlns="http://www.w3.org/2000/svg" xmlns:xlink="http://www.w3.org/1999/xlink" width="400" height="457.76566757493185" viewBox="0, 0, 400,457.76566757493185"><g id="svgg"><path id="path0" d="M186.408 2.816 C 175.120 7.712,173.968 11.338,173.304 44.071 L 172.752 71.249 160.844 46.523 C 154.294 32.925,148.515 21.798,148.002 21.798 C 145.940 21.798,131.605 32.108,124.430 38.751 C 105.994 55.820,92.959 80.771,89.009 106.555 L 87.738 114.846 82.686 116.134 C 64.106 120.870,60.851 146.041,77.658 155.019 L 82.289 157.493 202.180 157.493 L 322.071 157.493 326.975 154.768 C 343.046 145.840,339.850 120.729,322.071 116.232 L 316.621 114.854 315.756 108.926 C 311.869 82.297,298.037 55.176,280.034 38.884 C 273.014 32.531,258.166 21.798,256.396 21.798 C 255.839 21.798,249.941 32.956,243.290 46.594 L 231.196 71.390 231.129 47.738 C 231.037 15.090,229.296 8.690,219.106 3.542 C 213.043 0.479,192.831 0.030,186.408 2.816 M89.830 192.075 C 99.176 264.299,186.757 308.597,252.861 274.535 C 285.688 257.619,314.986 217.236,314.986 188.903 L 314.986 186.330 293.525 186.625 L 272.063 186.921 270.271 192.959 C 250.880 258.309,157.366 260.358,135.059 195.922 L 131.944 186.921 110.515 186.625 L 89.086 186.329 89.830 192.075 M109.627 316.215 C 55.354 321.432,12.559 361.676,3.790 415.741 C 0.350 436.950,2.730 447.953,12.099 454.153 L 16.734 457.221 200.919 457.503 L 385.104 457.784 389.867 455.479 C 398.769 451.170,400.000 447.893,400.000 428.515 C 400.000 369.104,354.951 321.936,292.643 316.109 C 278.222 314.761,123.829 314.850,109.627 316.215 M298.411 360.249 C 324.484 365.418,356.403 395.489,356.403 414.885 C 356.403 415.090,287.003 415.259,202.180 415.259 C 117.357 415.259,47.957 414.891,47.957 414.441 C 47.958 412.366,52.549 401.899,56.161 395.736 C 66.848 377.502,84.728 364.702,105.722 360.257 C 116.789 357.913,286.595 357.906,298.411 360.249 " stroke="none" fill="#ffffff" fill-rule="evenodd"></path></g></svg>